Coordinates
version=1
nRows=27
nColumns=26
inDegrees=yes

Units are S.I. units (second, meters, Newtons, ...)
Angles are in degrees.

endheader
time	pelvis_tilt	pelvis_list	pelvis_rotation	pelvis_tx	pelvis_ty	pelvis_tz	hip_flexion_r	hip_adduction_r	hip_rotation_r	knee_angle_r	knee_angle_r_beta	ankle_angle_r	subtalar_angle_r	mtp_angle_r	hip_flexion_l	hip_adduction_l	hip_rotation_l	knee_angle_l	knee_angle_l_beta	ankle_angle_l	subtalar_angle_l	mtp_angle_l	lumbar_extension	lumbar_bending	lumbar_rotation
      0.27500000	      6.00217080	     -0.76039639	     -2.08520741	      0.35832987	      1.01594185	      0.16313297	      9.86858153	     -3.34843506	     -1.33706633	     60.03559887	     60.03559887	      3.13805512	      0.00000000	      0.00000000	      2.73050108	      0.27516424	    -10.23343227	     14.88283954	     14.88283954	      5.81240431	      0.00000000	      0.00000000	    -19.31851091	     -0.55877317	      3.21324970
      0.28333333	      6.16899925	     -0.95722752	     -1.78832276	      0.36703138	      1.01710070	      0.16257992	     10.34643357	     -2.99507730	     -1.38404445	     58.94873576	     58.94873576	      3.75985529	      0.00000000	      0.00000000	      1.69508739	      0.18660992	     -9.97610248	     14.28902781	     14.28902781	      6.06336898	      0.00000000	      0.00000000	    -19.47805378	     -0.25368959	      3.04366641
      0.29166667	      6.28748167	     -1.11128899	     -1.52377172	      0.37553051	      1.01811550	      0.16194301	     10.86282473	     -2.68522768	     -1.40085033	     57.75882901	     57.75882901	      4.34335716	      0.00000000	      0.00000000	      0.70806225	      0.13327485	     -9.78337706	     13.66066089	     13.66066089	      6.22999381	      0.00000000	      0.00000000	    -19.61074352	     -0.00057442	      2.90336810
      0.30000000	      6.36221826	     -1.23480387	     -1.34350021	      0.38385665	      1.01894800	      0.16144640	     11.45579665	     -2.37851138	     -1.31207280	     56.46537594	     56.46537594	      4.77433292	      0.00000000	      0.00000000	     -0.20235601	      0.09121907	     -9.58118176	     13.10481898	     13.10481898	      6.41536353	      0.00000000	      0.00000000	    -19.71142862	      0.19588637	      2.80439487
      0.30833333	      6.50062457	     -1.38816225	     -0.95793372	      0.39244349	      1.01990803	      0.16110298	     11.68586325	     -1.97728320	     -1.27470589	     54.79239161	     54.79239161	      5.43482456	      0.00000000	      0.00000000	     -1.16197001	     -0.02935113	     -9.23269868	     12.56776819	     12.56776819	      6.58160446	      0.00000000	      0.00000000	    -19.86019651	      0.42644358	      2.55856235
      0.31666667	      6.62622861	     -1.48154955	     -0.55580450	      0.40099837	      1.02066576	      0.16077354	     12.08357255	     -1.78786074	     -1.40328497	     53.13771056	     53.13771056	      5.65862106	      0.00000000	      0.00000000	     -2.11563992	     -0.09221899	     -8.85725834	     12.00630880	     12.00630880	      6.59848206	      0.00000000	      0.00000000	    -19.98768531	      0.59098784	      2.22503252
      0.32500000	      6.74509191	     -1.56619457	     -0.28197996	      0.40956407	      1.02134058	      0.16036636	     12.44361567	     -1.61386488	     -1.50513134	     51.40417645	     51.40417645	      5.87602697	      0.00000000	      0.00000000	     -3.08863968	     -0.12765257	     -8.59863225	     11.40787170	     11.40787170	      6.64159969	      0.00000000	      0.00000000	    -20.11337779	      0.73608813	      2.03556471
      0.33333333	      6.76563980	     -1.59595642	     -0.02138249	      0.41788644	      1.02172403	      0.15999457	     12.85380756	     -1.44409448	     -1.48629182	     49.48457656	     49.48457656	      5.95696647	      0.00000000	      0.00000000	     -3.86616463	     -0.13112793	     -8.38812386	     10.95752176	     10.95752176	      6.79574598	      0.00000000	      0.00000000	    -20.16578251	      0.82409928	      1.81179557
      0.34166667	      6.80192562	     -1.65924790	      0.20199436	      0.42613719	      1.02202066	      0.15963632	     13.20319465	     -1.25592613	     -1.44246825	     47.44231407	     47.44231407	      5.99807665	      0.00000000	      0.00000000	     -4.65837138	     -0.17657399	     -8.19261487	     10.51663391	     10.51663391	      6.93241043	      0.00000000	      0.00000000	    -20.23587639	      0.93729479	      1.62541461
      0.35000000	      6.76563949	     -1.71434733	      0.38692295	      0.43441321	      1.02202607	      0.15930506	     13.58676863	     -1.08644926	     -1.37306049	     45.30468996	     45.30468996	      6.09113604	      0.00000000	      0.00000000	     -5.36015131	     -0.20661480	     -7.97089797	     10.10279398	     10.10279398	      7.09905931	      0.00000000	      0.00000000	    -20.23154954	      1.04642386	      1.45162776
      0.35833333	      6.72654906	     -1.69946238	      0.58151095	      0.44267602	      1.02200653	      0.15900893	     13.92496069	     -1.00893487	     -1.31867133	     43.05616008	     43.05616008	      6.05594464	      0.00000000	      0.00000000	     -6.05086314	     -0.16886262	     -7.73039240	      9.68690382	      9.68690382	      7.26011075	      0.00000000	      0.00000000	    -20.23225331	      1.07962284	      1.22391490
      0.36666667	      6.61679037	     -1.68559503	      0.78786603	      0.45087424	      1.02173099	      0.15883776	     14.26859052	     -0.90155293	     -1.17905918	     40.66967341	     40.66967341	      5.79152867	      0.00000000	      0.00000000	     -6.63616505	     -0.15187886	     -7.47372759	      9.33328100	      9.33328100	      7.49778507	      0.00000000	      0.00000000	    -20.15632951	      1.10916764	      1.01909601
      0.37500000	      6.52152344	     -1.63632772	      0.98467614	      0.45909115	      1.02139456	      0.15870922	     14.51984981	     -0.85672677	     -1.11496046	     38.11093241	     38.11093241	      5.69016547	      0.00000000	      0.00000000	     -7.23817148	     -0.11519610	     -7.26521129	      8.99673430	      8.99673430	      7.72266857	      0.00000000	      0.00000000	    -20.10498907	      1.09789672	      0.78892442
      0.38333333	      6.43402067	     -1.48771436	      1.15937057	      0.46726684	      1.02100427	      0.15868777	     14.70208413	     -0.91556451	     -0.99061485	     35.44485563	     35.44485563	      5.36975705	      0.00000000	      0.00000000	     -7.79494604	      0.04784324	     -7.21733957	      8.73663462	      8.73663462	      7.88634301	      0.00000000	      0.00000000	    -20.07135315	      0.96978785	      0.54801917
      0.39166667	      6.29236217	     -1.38313665	      1.35706209	      0.47548493	      1.02037679	      0.15861441	     14.88625641	     -0.93661024	     -0.88942088	     32.65950416	     32.65950416	      4.93913206	      0.00000000	      0.00000000	     -8.25767249	      0.14546192	     -7.06275077	      8.56151580	      8.56151580	      8.16035959	      0.00000000	      0.00000000	    -19.97598595	      0.89758652	      0.26659282
      0.40000000	      6.13405370	     -1.25174969	      1.53043542	      0.48367500	      1.01959153	      0.15866867	     14.99041825	     -0.97319486	     -0.74551485	     29.71759984	     29.71759984	      4.52688953	      0.00000000	      0.00000000	     -8.69657713	      0.25741860	     -6.86801934	      8.39345696	      8.39345696	      8.43536190	      0.00000000	      0.00000000	    -19.87000929	      0.78155892	      0.02450041
      0.40833333	      5.93788127	     -1.07883630	      1.64321689	      0.49186918	      1.01857799	      0.15879821	     15.12004417	     -1.05824056	     -0.62331657	     26.72282359	     26.72282359	      4.02294859	      0.00000000	      0.00000000	     -9.06898478	      0.41216598	     -6.77138854	      8.31317431	      8.31317431	      8.78279669	      0.00000000	      0.00000000	    -19.72558788	      0.60738417	     -0.19130164
      0.41666667	      5.65069168	     -0.87831360	      1.73147106	      0.49997936	      1.01724166	      0.15882503	     15.26598632	     -1.17570424	     -0.41110675	     23.59955912	     23.59955912	      3.52088235	      0.00000000	      0.00000000	     -9.31817247	      0.62357512	     -6.65666090	      8.24853666	      8.24853666	      9.14617014	      0.00000000	      0.00000000	    -19.50583217	      0.42833929	     -0.41360322
      0.42500000	      5.31137871	     -0.66327950	      1.86064470	      0.50798084	      1.01573280	      0.15901967	     15.50121734	     -1.33608973	     -0.37164955	     20.58733372	     20.58733372	      3.00484218	      0.00000000	      0.00000000	     -9.42543862	      0.80715357	     -6.61564571	      8.36707106	      8.36707106	      9.59313556	      0.00000000	      0.00000000	    -19.22620488	      0.19239587	     -0.63620525
      0.43333333	      4.97459127	     -0.42016405	      2.11926561	      0.51576589	      1.01409793	      0.15911421	     15.67029481	     -1.55191909	     -0.43165882	     17.57483982	     17.57483982	      2.53317945	      0.00000000	      0.00000000	     -9.41691271	      0.95734713	     -6.54531775	      8.73965650	      8.73965650	     10.31211770	      0.00000000	      0.00000000	    -18.98034033	     -0.03111702	     -0.98088377
      0.44166667	      4.55898185	     -0.16491651	      2.22423795	      0.52372608	      1.01218241	      0.15932599	     15.87794562	     -1.74538445	     -0.28981217	     14.53480577	     14.53480577	      1.93217318	      0.00000000	      0.00000000	     -9.39727897	      1.18912220	     -6.42385850	      8.89090053	      8.89090053	     10.64059078	      0.00000000	      0.00000000	    -18.61886724	     -0.29582428	     -1.17772251
      0.45000000	      4.12387655	      0.06221883	      2.31034192	      0.53185269	      1.01014646	      0.15990645	     16.13462606	     -1.89485124	     -0.30715594	     11.69906219	     11.69906219	      1.27173527	      0.00000000	      0.00000000	     -9.38993944	      1.37580050	     -6.44734738	      9.05129441	      9.05129441	     11.06993856	      0.00000000	      0.00000000	    -18.22200165	     -0.57322901	     -1.34759299
      0.45833333	      3.69976655	      0.31092241	      2.32723192	      0.54014136	      1.00800021	      0.16045855	     16.37119757	     -2.05679240	     -0.26729608	      9.03349943	      9.03349943	      0.62609503	      0.00000000	      0.00000000	     -9.38287546	      1.58430466	     -6.51193581	      9.24612507	      9.24612507	     11.51731606	      0.00000000	      0.00000000	    -17.81552980	     -0.86046718	     -1.47050458
      0.46666667	      3.31470793	      0.53925364	      2.34749425	      0.54859558	      1.00576492	      0.16085796	     16.55454486	     -2.21008914	     -0.22109424	      6.53111513	      6.53111513	     -0.01915128	      0.00000000	      0.00000000	     -9.37753588	      1.78167515	     -6.60683853	      9.56920924	      9.56920924	     12.05903282	      0.00000000	      0.00000000	    -17.42497407	     -1.10599972	     -1.58453999
      0.47500000	      3.04070678	      0.77360784	      2.42325250	      0.55713634	      1.00373355	      0.16125873	     16.69907046	     -2.39369040	     -0.32092618	      4.40662903	      4.40662903	     -0.58316283	      0.00000000	      0.00000000	     -9.52299569	      1.94522363	     -6.67065961	      9.84941142	      9.84941142	     12.54136517	      0.00000000	      0.00000000	    -17.15499940	     -1.33573974	     -1.74624982
      0.48333333	      2.85478134	      0.96734081	      2.60722335	      0.56574687	      1.00179548	      0.16164903	     16.78790807	     -2.52815312	     -0.55533092	      2.68514594	      2.68514594	     -0.99850590	      0.00000000	      0.00000000	     -9.74512890	      2.05321793	     -6.53400349	     10.11182840	     10.11182840	     12.96658129	      0.00000000	      0.00000000	    -16.97830852	     -1.48894292	     -2.01796435
      0.49166667	      2.77096717	      1.07845237	      2.81044799	      0.57442814	      1.00006911	      0.16193033	     16.86994189	     -2.57835826	     -1.02594983	      1.45790227	      1.45790227	     -1.29892461	      0.00000000	      0.00000000	    -10.05920556	      2.05895556	     -6.43035680	     10.44354446	     10.44354446	     13.41848775	      0.00000000	      0.00000000	    -16.90951392	     -1.52246856	     -2.25966381
